<svg width="739" height="161" viewBox="0 0 739 161" xmlns="http://www.w3.org/2000/svg">
<rect width="100%" height="100%" fill="#FFFFFF"/>
<text x="30" y="25" font-family="Arial, sans-serif" font-size="14" font-weight="bold" fill="#000000">微信读书阅读热力图 - 2026</text>
<text x="30" y="35" font-family="Arial, sans-serif" font-size="10" fill="#000000">Jan</text>
<text x="82" y="35" font-family="Arial, sans-serif" font-size="10" fill="#000000">Feb</text>
<text x="134" y="35" font-family="Arial, sans-serif" font-size="10" fill="#000000">Mar</text>
<text x="199" y="35" font-family="Arial, sans-serif" font-size="10" fill="#000000">Apr</text>
<text x="251" y="35" font-family="Arial, sans-serif" font-size="10" fill="#000000">May</text>
<text x="316" y="35" font-family="Arial, sans-serif" font-size="10" fill="#000000">Jun</text>
<text x="368" y="35" font-family="Arial, sans-serif" font-size="10" fill="#000000">Jul</text>
<text x="420" y="35" font-family="Arial, sans-serif" font-size="10" fill="#000000">Aug</text>
<text x="485" y="35" font-family="Arial, sans-serif" font-size="10" fill="#000000">Sep</text>
<text x="537" y="35" font-family="Arial, sans-serif" font-size="10" fill="#000000">Oct</text>
<text x="589" y="35" font-family="Arial, sans-serif" font-size="10" fill="#000000">Nov</text>
<text x="654" y="35" font-family="Arial, sans-serif" font-size="10" fill="#000000">Dec</text>
<text x="5" y="64" font-family="Arial, sans-serif" font-size="9" fill="#000000">Mon</text>
<text x="5" y="90" font-family="Arial, sans-serif" font-size="9" fill="#000000">Wed</text>
<text x="5" y="116" font-family="Arial, sans-serif" font-size="9" fill="#000000">Fri</text>
<rect x="30" y="79" width="11" height="11" fill="#EBEDF0" rx="2" ry="2">
<title>2026-01-01: 0 分钟</title>
</rect>
<rect x="30" y="92" width="11" height="11" fill="#EBEDF0" rx="2" ry="2">
<title>2026-01-02: 0 分钟</title>
</rect>
<rect x="30" y="105" width="11" height="11" fill="#EBEDF0" rx="2" ry="2">
<title>2026-01-03: 0 分钟</title>
</rect>
<rect x="30" y="118" width="11" height="11" fill="#EBEDF0" rx="2" ry="2">
<title>2026-01-04: 0 分钟</title>
</rect>
<rect x="43" y="40" width="11" height="11" fill="#EBEDF0" rx="2" ry="2">
<title>2026-01-05: 0 分钟</title>
</rect>
<rect x="43" y="53" width="11" height="11" fill="#EBEDF0" rx="2" ry="2">
<title>2026-01-06: 0 分钟</title>
</rect>
<rect x="43" y="66" width="11" height="11" fill="#EBEDF0" rx="2" ry="2">
<title>2026-01-07: 0 分钟</title>
</rect>
<rect x="43" y="79" width="11" height="11" fill="#EBEDF0" rx="2" ry="2">
<title>2026-01-08: 0 分钟</title>
</rect>
<rect x="43" y="92" width="11" height="11" fill="#EBEDF0" rx="2" ry="2">
<title>2026-01-09: 0 分钟</title>
</rect>
<rect x="43" y="105" width="11" height="11" fill="#EBEDF0" rx="2" ry="2">
<title>2026-01-10: 0 分钟</title>
</rect>
<rect x="43" y="118" width="11" height="11" fill="#EBEDF0" rx="2" ry="2">
<title>2026-01-11: 0 分钟</title>
</rect>
<rect x="56" y="40" width="11" height="11" fill="#EBEDF0" rx="2" ry="2">
<title>2026-01-12: 0 分钟</title>
</rect>
<rect x="56" y="53" width="11" height="11" fill="#EBEDF0" rx="2" ry="2">
<title>2026-01-13: 0 分钟</title>
</rect>
<rect x="56" y="66" width="11" height="11" fill="#EBEDF0" rx="2" ry="2">
<title>2026-01-14: 0 分钟</title>
</rect>
<rect x="56" y="79" width="11" height="11" fill="#EBEDF0" rx="2" ry="2">
<title>2026-01-15: 0 分钟</title>
</rect>
<rect x="56" y="92" width="11" height="11" fill="#EBEDF0" rx="2" ry="2">
<title>2026-01-16: 0 分钟</title>
</rect>
<rect x="56" y="105" width="11" height="11" fill="#EBEDF0" rx="2" ry="2">
<title>2026-01-17: 0 分钟</title>
</rect>
<rect x="56" y="118" width="11" height="11" fill="#EBEDF0" rx="2" ry="2">
<title>2026-01-18: 0 分钟</title>
</rect>
<rect x="69" y="40" width="11" height="11" fill="#EBEDF0" rx="2" ry="2">
<title>2026-01-19: 0 分钟</title>
</rect>
<rect x="69" y="53" width="11" height="11" fill="#EBEDF0" rx="2" ry="2">
<title>2026-01-20: 0 分钟</title>
</rect>
<rect x="69" y="66" width="11" height="11" fill="#EBEDF0" rx="2" ry="2">
<title>2026-01-21: 0 分钟</title>
</rect>
<rect x="69" y="79" width="11" height="11" fill="#EBEDF0" rx="2" ry="2">
<title>2026-01-22: 0 分钟</title>
</rect>
<rect x="69" y="92" width="11" height="11" fill="#EBEDF0" rx="2" ry="2">
<title>2026-01-23: 0 分钟</title>
</rect>
<rect x="69" y="105" width="11" height="11" fill="#EBEDF0" rx="2" ry="2">
<title>2026-01-24: 0 分钟</title>
</rect>
<rect x="69" y="118" width="11" height="11" fill="#EBEDF0" rx="2" ry="2">
<title>2026-01-25: 0 分钟</title>
</rect>
<rect x="82" y="40" width="11" height="11" fill="#EBEDF0" rx="2" ry="2">
<title>2026-01-26: 0 分钟</title>
</rect>
<rect x="82" y="53" width="11" height="11" fill="#EBEDF0" rx="2" ry="2">
<title>2026-01-27: 0 分钟</title>
</rect>
<rect x="82" y="66" width="11" height="11" fill="#EBEDF0" rx="2" ry="2">
<title>2026-01-28: 0 分钟</title>
</rect>
<rect x="82" y="79" width="11" height="11" fill="#EBEDF0" rx="2" ry="2">
<title>2026-01-29: 0 分钟</title>
</rect>
<rect x="82" y="92" width="11" height="11" fill="#EBEDF0" rx="2" ry="2">
<title>2026-01-30: 0 分钟</title>
</rect>
<rect x="82" y="105" width="11" height="11" fill="#EBEDF0" rx="2" ry="2">
<title>2026-01-31: 0 分钟</title>
</rect>
<rect x="82" y="118" width="11" height="11" fill="#EBEDF0" rx="2" ry="2">
<title>2026-02-01: 0 分钟</title>
</rect>
<rect x="95" y="40" width="11" height="11" fill="#EBEDF0" rx="2" ry="2">
<title>2026-02-02: 0 分钟</title>
</rect>
<rect x="95" y="53" width="11" height="11" fill="#EBEDF0" rx="2" ry="2">
<title>2026-02-03: 0 分钟</title>
</rect>
<rect x="95" y="66" width="11" height="11" fill="#EBEDF0" rx="2" ry="2">
<title>2026-02-04: 0 分钟</title>
</rect>
<rect x="95" y="79" width="11" height="11" fill="#EBEDF0" rx="2" ry="2">
<title>2026-02-05: 0 分钟</title>
</rect>
<rect x="95" y="92" width="11" height="11" fill="#EBEDF0" rx="2" ry="2">
<title>2026-02-06: 0 分钟</title>
</rect>
<rect x="95" y="105" width="11" height="11" fill="#EBEDF0" rx="2" ry="2">
<title>2026-02-07: 0 分钟</title>
</rect>
<rect x="95" y="118" width="11" height="11" fill="#EBEDF0" rx="2" ry="2">
<title>2026-02-08: 0 分钟</title>
</rect>
<rect x="108" y="40" width="11" height="11" fill="#EBEDF0" rx="2" ry="2">
<title>2026-02-09: 0 分钟</title>
</rect>
<rect x="108" y="53" width="11" height="11" fill="#EBEDF0" rx="2" ry="2">
<title>2026-02-10: 0 分钟</title>
</rect>
<rect x="108" y="66" width="11" height="11" fill="#EBEDF0" rx="2" ry="2">
<title>2026-02-11: 0 分钟</title>
</rect>
<rect x="108" y="79" width="11" height="11" fill="#EBEDF0" rx="2" ry="2">
<title>2026-02-12: 0 分钟</title>
</rect>
<rect x="108" y="92" width="11" height="11" fill="#EBEDF0" rx="2" ry="2">
<title>2026-02-13: 0 分钟</title>
</rect>
<rect x="108" y="105" width="11" height="11" fill="#EBEDF0" rx="2" ry="2">
<title>2026-02-14: 0 分钟</title>
</rect>
<rect x="108" y="118" width="11" height="11" fill="#EBEDF0" rx="2" ry="2">
<title>2026-02-15: 0 分钟</title>
</rect>
<rect x="121" y="40" width="11" height="11" fill="#EBEDF0" rx="2" ry="2">
<title>2026-02-16: 0 分钟</title>
</rect>
<rect x="121" y="53" width="11" height="11" fill="#EBEDF0" rx="2" ry="2">
<title>2026-02-17: 0 分钟</title>
</rect>
<rect x="121" y="66" width="11" height="11" fill="#EBEDF0" rx="2" ry="2">
<title>2026-02-18: 0 分钟</title>
</rect>
<rect x="121" y="79" width="11" height="11" fill="#EBEDF0" rx="2" ry="2">
<title>2026-02-19: 0 分钟</title>
</rect>
<rect x="121" y="92" width="11" height="11" fill="#EBEDF0" rx="2" ry="2">
<title>2026-02-20: 0 分钟</title>
</rect>
<rect x="121" y="105" width="11" height="11" fill="#EBEDF0" rx="2" ry="2">
<title>2026-02-21: 0 分钟</title>
</rect>
<rect x="121" y="118" width="11" height="11" fill="#EBEDF0" rx="2" ry="2">
<title>2026-02-22: 0 分钟</title>
</rect>
<rect x="134" y="40" width="11" height="11" fill="#EBEDF0" rx="2" ry="2">
<title>2026-02-23: 0 分钟</title>
</rect>
<rect x="134" y="53" width="11" height="11" fill="#EBEDF0" rx="2" ry="2">
<title>2026-02-24: 0 分钟</title>
</rect>
<rect x="134" y="66" width="11" height="11" fill="#EBEDF0" rx="2" ry="2">
<title>2026-02-25: 0 分钟</title>
</rect>
<rect x="134" y="79" width="11" height="11" fill="#EBEDF0" rx="2" ry="2">
<title>2026-02-26: 0 分钟</title>
</rect>
<rect x="134" y="92" width="11" height="11" fill="#EBEDF0" rx="2" ry="2">
<title>2026-02-27: 0 分钟</title>
</rect>
<rect x="134" y="105" width="11" height="11" fill="#EBEDF0" rx="2" ry="2">
<title>2026-02-28: 0 分钟</title>
</rect>
<rect x="134" y="118" width="11" height="11" fill="#EBEDF0" rx="2" ry="2">
<title>2026-03-01: 0 分钟</title>
</rect>
<rect x="147" y="40" width="11" height="11" fill="#EBEDF0" rx="2" ry="2">
<title>2026-03-02: 0 分钟</title>
</rect>
<rect x="147" y="53" width="11" height="11" fill="#EBEDF0" rx="2" ry="2">
<title>2026-03-03: 0 分钟</title>
</rect>
<rect x="147" y="66" width="11" height="11" fill="#EBEDF0" rx="2" ry="2">
<title>2026-03-04: 0 分钟</title>
</rect>
<rect x="147" y="79" width="11" height="11" fill="#EBEDF0" rx="2" ry="2">
<title>2026-03-05: 0 分钟</title>
</rect>
<rect x="147" y="92" width="11" height="11" fill="#EBEDF0" rx="2" ry="2">
<title>2026-03-06: 0 分钟</title>
</rect>
<rect x="147" y="105" width="11" height="11" fill="#EBEDF0" rx="2" ry="2">
<title>2026-03-07: 0 分钟</title>
</rect>
<rect x="147" y="118" width="11" height="11" fill="#EBEDF0" rx="2" ry="2">
<title>2026-03-08: 0 分钟</title>
</rect>
<rect x="160" y="40" width="11" height="11" fill="#EBEDF0" rx="2" ry="2">
<title>2026-03-09: 0 分钟</title>
</rect>
<rect x="160" y="53" width="11" height="11" fill="#EBEDF0" rx="2" ry="2">
<title>2026-03-10: 0 分钟</title>
</rect>
<rect x="160" y="66" width="11" height="11" fill="#EBEDF0" rx="2" ry="2">
<title>2026-03-11: 0 分钟</title>
</rect>
<rect x="160" y="79" width="11" height="11" fill="#EBEDF0" rx="2" ry="2">
<title>2026-03-12: 0 分钟</title>
</rect>
<rect x="160" y="92" width="11" height="11" fill="#EBEDF0" rx="2" ry="2">
<title>2026-03-13: 0 分钟</title>
</rect>
<rect x="160" y="105" width="11" height="11" fill="#EBEDF0" rx="2" ry="2">
<title>2026-03-14: 0 分钟</title>
</rect>
<rect x="160" y="118" width="11" height="11" fill="#EBEDF0" rx="2" ry="2">
<title>2026-03-15: 0 分钟</title>
</rect>
<rect x="173" y="40" width="11" height="11" fill="#EBEDF0" rx="2" ry="2">
<title>2026-03-16: 0 分钟</title>
</rect>
<rect x="173" y="53" width="11" height="11" fill="#EBEDF0" rx="2" ry="2">
<title>2026-03-17: 0 分钟</title>
</rect>
<rect x="173" y="66" width="11" height="11" fill="#EBEDF0" rx="2" ry="2">
<title>2026-03-18: 0 分钟</title>
</rect>
<rect x="173" y="79" width="11" height="11" fill="#EBEDF0" rx="2" ry="2">
<title>2026-03-19: 0 分钟</title>
</rect>
<rect x="173" y="92" width="11" height="11" fill="#EBEDF0" rx="2" ry="2">
<title>2026-03-20: 0 分钟</title>
</rect>
<rect x="173" y="105" width="11" height="11" fill="#EBEDF0" rx="2" ry="2">
<title>2026-03-21: 0 分钟</title>
</rect>
<rect x="173" y="118" width="11" height="11" fill="#EBEDF0" rx="2" ry="2">
<title>2026-03-22: 0 分钟</title>
</rect>
<rect x="186" y="40" width="11" height="11" fill="#EBEDF0" rx="2" ry="2">
<title>2026-03-23: 0 分钟</title>
</rect>
<rect x="186" y="53" width="11" height="11" fill="#EBEDF0" rx="2" ry="2">
<title>2026-03-24: 0 分钟</title>
</rect>
<rect x="186" y="66" width="11" height="11" fill="#EBEDF0" rx="2" ry="2">
<title>2026-03-25: 0 分钟</title>
</rect>
<rect x="186" y="79" width="11" height="11" fill="#EBEDF0" rx="2" ry="2">
<title>2026-03-26: 0 分钟</title>
</rect>
<rect x="186" y="92" width="11" height="11" fill="#EBEDF0" rx="2" ry="2">
<title>2026-03-27: 0 分钟</title>
</rect>
<rect x="186" y="105" width="11" height="11" fill="#EBEDF0" rx="2" ry="2">
<title>2026-03-28: 0 分钟</title>
</rect>
<rect x="186" y="118" width="11" height="11" fill="#EBEDF0" rx="2" ry="2">
<title>2026-03-29: 0 分钟</title>
</rect>
<rect x="199" y="40" width="11" height="11" fill="#EBEDF0" rx="2" ry="2">
<title>2026-03-30: 0 分钟</title>
</rect>
<rect x="199" y="53" width="11" height="11" fill="#EBEDF0" rx="2" ry="2">
<title>2026-03-31: 0 分钟</title>
</rect>
<rect x="199" y="66" width="11" height="11" fill="#EBEDF0" rx="2" ry="2">
<title>2026-04-01: 0 分钟</title>
</rect>
<rect x="199" y="79" width="11" height="11" fill="#EBEDF0" rx="2" ry="2">
<title>2026-04-02: 0 分钟</title>
</rect>
<rect x="199" y="92" width="11" height="11" fill="#EBEDF0" rx="2" ry="2">
<title>2026-04-03: 0 分钟</title>
</rect>
<rect x="199" y="105" width="11" height="11" fill="#EBEDF0" rx="2" ry="2">
<title>2026-04-04: 0 分钟</title>
</rect>
<rect x="199" y="118" width="11" height="11" fill="#EBEDF0" rx="2" ry="2">
<title>2026-04-05: 0 分钟</title>
</rect>
<rect x="212" y="40" width="11" height="11" fill="#EBEDF0" rx="2" ry="2">
<title>2026-04-06: 0 分钟</title>
</rect>
<rect x="212" y="53" width="11" height="11" fill="#EBEDF0" rx="2" ry="2">
<title>2026-04-07: 0 分钟</title>
</rect>
<rect x="212" y="66" width="11" height="11" fill="#EBEDF0" rx="2" ry="2">
<title>2026-04-08: 0 分钟</title>
</rect>
<rect x="212" y="79" width="11" height="11" fill="#EBEDF0" rx="2" ry="2">
<title>2026-04-09: 0 分钟</title>
</rect>
<rect x="212" y="92" width="11" height="11" fill="#EBEDF0" rx="2" ry="2">
<title>2026-04-10: 0 分钟</title>
</rect>
<rect x="212" y="105" width="11" height="11" fill="#EBEDF0" rx="2" ry="2">
<title>2026-04-11: 0 分钟</title>
</rect>
<rect x="212" y="118" width="11" height="11" fill="#EBEDF0" rx="2" ry="2">
<title>2026-04-12: 0 分钟</title>
</rect>
<rect x="225" y="40" width="11" height="11" fill="#EBEDF0" rx="2" ry="2">
<title>2026-04-13: 0 分钟</title>
</rect>
<rect x="225" y="53" width="11" height="11" fill="#EBEDF0" rx="2" ry="2">
<title>2026-04-14: 0 分钟</title>
</rect>
<rect x="225" y="66" width="11" height="11" fill="#EBEDF0" rx="2" ry="2">
<title>2026-04-15: 0 分钟</title>
</rect>
<rect x="225" y="79" width="11" height="11" fill="#EBEDF0" rx="2" ry="2">
<title>2026-04-16: 0 分钟</title>
</rect>
<rect x="225" y="92" width="11" height="11" fill="#EBEDF0" rx="2" ry="2">
<title>2026-04-17: 0 分钟</title>
</rect>
<rect x="225" y="105" width="11" height="11" fill="#EBEDF0" rx="2" ry="2">
<title>2026-04-18: 0 分钟</title>
</rect>
<rect x="225" y="118" width="11" height="11" fill="#EBEDF0" rx="2" ry="2">
<title>2026-04-19: 0 分钟</title>
</rect>
<rect x="238" y="40" width="11" height="11" fill="#EBEDF0" rx="2" ry="2">
<title>2026-04-20: 0 分钟</title>
</rect>
<rect x="238" y="53" width="11" height="11" fill="#EBEDF0" rx="2" ry="2">
<title>2026-04-21: 0 分钟</title>
</rect>
<rect x="238" y="66" width="11" height="11" fill="#EBEDF0" rx="2" ry="2">
<title>2026-04-22: 0 分钟</title>
</rect>
<rect x="238" y="79" width="11" height="11" fill="#EBEDF0" rx="2" ry="2">
<title>2026-04-23: 0 分钟</title>
</rect>
<rect x="238" y="92" width="11" height="11" fill="#EBEDF0" rx="2" ry="2">
<title>2026-04-24: 0 分钟</title>
</rect>
<rect x="238" y="105" width="11" height="11" fill="#EBEDF0" rx="2" ry="2">
<title>2026-04-25: 0 分钟</title>
</rect>
<rect x="238" y="118" width="11" height="11" fill="#EBEDF0" rx="2" ry="2">
<title>2026-04-26: 0 分钟</title>
</rect>
<rect x="251" y="40" width="11" height="11" fill="#EBEDF0" rx="2" ry="2">
<title>2026-04-27: 0 分钟</title>
</rect>
<rect x="251" y="53" width="11" height="11" fill="#EBEDF0" rx="2" ry="2">
<title>2026-04-28: 0 分钟</title>
</rect>
<rect x="251" y="66" width="11" height="11" fill="#EBEDF0" rx="2" ry="2">
<title>2026-04-29: 0 分钟</title>
</rect>
<rect x="251" y="79" width="11" height="11" fill="#EBEDF0" rx="2" ry="2">
<title>2026-04-30: 0 分钟</title>
</rect>
<rect x="251" y="92" width="11" height="11" fill="#EBEDF0" rx="2" ry="2">
<title>2026-05-01: 0 分钟</title>
</rect>
<rect x="251" y="105" width="11" height="11" fill="#EBEDF0" rx="2" ry="2">
<title>2026-05-02: 0 分钟</title>
</rect>
<rect x="251" y="118" width="11" height="11" fill="#EBEDF0" rx="2" ry="2">
<title>2026-05-03: 0 分钟</title>
</rect>
<rect x="264" y="40" width="11" height="11" fill="#EBEDF0" rx="2" ry="2">
<title>2026-05-04: 0 分钟</title>
</rect>
<rect x="264" y="53" width="11" height="11" fill="#EBEDF0" rx="2" ry="2">
<title>2026-05-05: 0 分钟</title>
</rect>
<rect x="264" y="66" width="11" height="11" fill="#EBEDF0" rx="2" ry="2">
<title>2026-05-06: 0 分钟</title>
</rect>
<rect x="264" y="79" width="11" height="11" fill="#EBEDF0" rx="2" ry="2">
<title>2026-05-07: 0 分钟</title>
</rect>
<rect x="264" y="92" width="11" height="11" fill="#EBEDF0" rx="2" ry="2">
<title>2026-05-08: 0 分钟</title>
</rect>
<rect x="264" y="105" width="11" height="11" fill="#EBEDF0" rx="2" ry="2">
<title>2026-05-09: 0 分钟</title>
</rect>
<rect x="264" y="118" width="11" height="11" fill="#EBEDF0" rx="2" ry="2">
<title>2026-05-10: 0 分钟</title>
</rect>
<rect x="277" y="40" width="11" height="11" fill="#EBEDF0" rx="2" ry="2">
<title>2026-05-11: 0 分钟</title>
</rect>
<rect x="277" y="53" width="11" height="11" fill="#EBEDF0" rx="2" ry="2">
<title>2026-05-12: 0 分钟</title>
</rect>
<rect x="277" y="66" width="11" height="11" fill="#EBEDF0" rx="2" ry="2">
<title>2026-05-13: 0 分钟</title>
</rect>
<rect x="277" y="79" width="11" height="11" fill="#EBEDF0" rx="2" ry="2">
<title>2026-05-14: 0 分钟</title>
</rect>
<rect x="277" y="92" width="11" height="11" fill="#EBEDF0" rx="2" ry="2">
<title>2026-05-15: 0 分钟</title>
</rect>
<rect x="277" y="105" width="11" height="11" fill="#EBEDF0" rx="2" ry="2">
<title>2026-05-16: 0 分钟</title>
</rect>
<rect x="277" y="118" width="11" height="11" fill="#EBEDF0" rx="2" ry="2">
<title>2026-05-17: 0 分钟</title>
</rect>
<rect x="290" y="40" width="11" height="11" fill="#EBEDF0" rx="2" ry="2">
<title>2026-05-18: 0 分钟</title>
</rect>
<rect x="290" y="53" width="11" height="11" fill="#EBEDF0" rx="2" ry="2">
<title>2026-05-19: 0 分钟</title>
</rect>
<rect x="290" y="66" width="11" height="11" fill="#EBEDF0" rx="2" ry="2">
<title>2026-05-20: 0 分钟</title>
</rect>
<rect x="290" y="79" width="11" height="11" fill="#EBEDF0" rx="2" ry="2">
<title>2026-05-21: 0 分钟</title>
</rect>
<rect x="290" y="92" width="11" height="11" fill="#EBEDF0" rx="2" ry="2">
<title>2026-05-22: 0 分钟</title>
</rect>
<rect x="290" y="105" width="11" height="11" fill="#EBEDF0" rx="2" ry="2">
<title>2026-05-23: 0 分钟</title>
</rect>
<rect x="290" y="118" width="11" height="11" fill="#EBEDF0" rx="2" ry="2">
<title>2026-05-24: 0 分钟</title>
</rect>
<rect x="303" y="40" width="11" height="11" fill="#EBEDF0" rx="2" ry="2">
<title>2026-05-25: 0 分钟</title>
</rect>
<rect x="303" y="53" width="11" height="11" fill="#EBEDF0" rx="2" ry="2">
<title>2026-05-26: 0 分钟</title>
</rect>
<rect x="303" y="66" width="11" height="11" fill="#EBEDF0" rx="2" ry="2">
<title>2026-05-27: 0 分钟</title>
</rect>
<rect x="303" y="79" width="11" height="11" fill="#EBEDF0" rx="2" ry="2">
<title>2026-05-28: 0 分钟</title>
</rect>
<rect x="303" y="92" width="11" height="11" fill="#EBEDF0" rx="2" ry="2">
<title>2026-05-29: 0 分钟</title>
</rect>
<rect x="303" y="105" width="11" height="11" fill="#EBEDF0" rx="2" ry="2">
<title>2026-05-30: 0 分钟</title>
</rect>
<rect x="303" y="118" width="11" height="11" fill="#EBEDF0" rx="2" ry="2">
<title>2026-05-31: 0 分钟</title>
</rect>
<rect x="316" y="40" width="11" height="11" fill="#EBEDF0" rx="2" ry="2">
<title>2026-06-01: 0 分钟</title>
</rect>
<rect x="316" y="53" width="11" height="11" fill="#EBEDF0" rx="2" ry="2">
<title>2026-06-02: 0 分钟</title>
</rect>
<rect x="316" y="66" width="11" height="11" fill="#EBEDF0" rx="2" ry="2">
<title>2026-06-03: 0 分钟</title>
</rect>
<rect x="316" y="79" width="11" height="11" fill="#EBEDF0" rx="2" ry="2">
<title>2026-06-04: 0 分钟</title>
</rect>
<rect x="316" y="92" width="11" height="11" fill="#EBEDF0" rx="2" ry="2">
<title>2026-06-05: 0 分钟</title>
</rect>
<rect x="316" y="105" width="11" height="11" fill="#EBEDF0" rx="2" ry="2">
<title>2026-06-06: 0 分钟</title>
</rect>
<rect x="316" y="118" width="11" height="11" fill="#EBEDF0" rx="2" ry="2">
<title>2026-06-07: 0 分钟</title>
</rect>
<rect x="329" y="40" width="11" height="11" fill="#EBEDF0" rx="2" ry="2">
<title>2026-06-08: 0 分钟</title>
</rect>
<rect x="329" y="53" width="11" height="11" fill="#EBEDF0" rx="2" ry="2">
<title>2026-06-09: 0 分钟</title>
</rect>
<rect x="329" y="66" width="11" height="11" fill="#EBEDF0" rx="2" ry="2">
<title>2026-06-10: 0 分钟</title>
</rect>
<rect x="329" y="79" width="11" height="11" fill="#EBEDF0" rx="2" ry="2">
<title>2026-06-11: 0 分钟</title>
</rect>
<rect x="329" y="92" width="11" height="11" fill="#EBEDF0" rx="2" ry="2">
<title>2026-06-12: 0 分钟</title>
</rect>
<rect x="329" y="105" width="11" height="11" fill="#EBEDF0" rx="2" ry="2">
<title>2026-06-13: 0 分钟</title>
</rect>
<rect x="329" y="118" width="11" height="11" fill="#EBEDF0" rx="2" ry="2">
<title>2026-06-14: 0 分钟</title>
</rect>
<rect x="342" y="40" width="11" height="11" fill="#EBEDF0" rx="2" ry="2">
<title>2026-06-15: 0 分钟</title>
</rect>
<rect x="342" y="53" width="11" height="11" fill="#EBEDF0" rx="2" ry="2">
<title>2026-06-16: 0 分钟</title>
</rect>
<rect x="342" y="66" width="11" height="11" fill="#EBEDF0" rx="2" ry="2">
<title>2026-06-17: 0 分钟</title>
</rect>
<rect x="342" y="79" width="11" height="11" fill="#EBEDF0" rx="2" ry="2">
<title>2026-06-18: 0 分钟</title>
</rect>
<rect x="342" y="92" width="11" height="11" fill="#EBEDF0" rx="2" ry="2">
<title>2026-06-19: 0 分钟</title>
</rect>
<rect x="342" y="105" width="11" height="11" fill="#EBEDF0" rx="2" ry="2">
<title>2026-06-20: 0 分钟</title>
</rect>
<rect x="342" y="118" width="11" height="11" fill="#EBEDF0" rx="2" ry="2">
<title>2026-06-21: 0 分钟</title>
</rect>
<rect x="355" y="40" width="11" height="11" fill="#EBEDF0" rx="2" ry="2">
<title>2026-06-22: 0 分钟</title>
</rect>
<rect x="355" y="53" width="11" height="11" fill="#EBEDF0" rx="2" ry="2">
<title>2026-06-23: 0 分钟</title>
</rect>
<rect x="355" y="66" width="11" height="11" fill="#EBEDF0" rx="2" ry="2">
<title>2026-06-24: 0 分钟</title>
</rect>
<rect x="355" y="79" width="11" height="11" fill="#EBEDF0" rx="2" ry="2">
<title>2026-06-25: 0 分钟</title>
</rect>
<rect x="355" y="92" width="11" height="11" fill="#EBEDF0" rx="2" ry="2">
<title>2026-06-26: 0 分钟</title>
</rect>
<rect x="355" y="105" width="11" height="11" fill="#EBEDF0" rx="2" ry="2">
<title>2026-06-27: 0 分钟</title>
</rect>
<rect x="355" y="118" width="11" height="11" fill="#EBEDF0" rx="2" ry="2">
<title>2026-06-28: 0 分钟</title>
</rect>
<rect x="368" y="40" width="11" height="11" fill="#EBEDF0" rx="2" ry="2">
<title>2026-06-29: 0 分钟</title>
</rect>
<rect x="368" y="53" width="11" height="11" fill="#EBEDF0" rx="2" ry="2">
<title>2026-06-30: 0 分钟</title>
</rect>
<rect x="368" y="66" width="11" height="11" fill="#EBEDF0" rx="2" ry="2">
<title>2026-07-01: 0 分钟</title>
</rect>
<rect x="368" y="79" width="11" height="11" fill="#EBEDF0" rx="2" ry="2">
<title>2026-07-02: 0 分钟</title>
</rect>
<rect x="368" y="92" width="11" height="11" fill="#EBEDF0" rx="2" ry="2">
<title>2026-07-03: 0 分钟</title>
</rect>
<rect x="368" y="105" width="11" height="11" fill="#EBEDF0" rx="2" ry="2">
<title>2026-07-04: 0 分钟</title>
</rect>
<rect x="368" y="118" width="11" height="11" fill="#EBEDF0" rx="2" ry="2">
<title>2026-07-05: 0 分钟</title>
</rect>
<rect x="381" y="40" width="11" height="11" fill="#EBEDF0" rx="2" ry="2">
<title>2026-07-06: 0 分钟</title>
</rect>
<rect x="381" y="53" width="11" height="11" fill="#EBEDF0" rx="2" ry="2">
<title>2026-07-07: 0 分钟</title>
</rect>
<rect x="381" y="66" width="11" height="11" fill="#EBEDF0" rx="2" ry="2">
<title>2026-07-08: 0 分钟</title>
</rect>
<rect x="381" y="79" width="11" height="11" fill="#EBEDF0" rx="2" ry="2">
<title>2026-07-09: 0 分钟</title>
</rect>
<rect x="381" y="92" width="11" height="11" fill="#EBEDF0" rx="2" ry="2">
<title>2026-07-10: 0 分钟</title>
</rect>
<rect x="381" y="105" width="11" height="11" fill="#EBEDF0" rx="2" ry="2">
<title>2026-07-11: 0 分钟</title>
</rect>
<rect x="381" y="118" width="11" height="11" fill="#EBEDF0" rx="2" ry="2">
<title>2026-07-12: 0 分钟</title>
</rect>
<rect x="394" y="40" width="11" height="11" fill="#EBEDF0" rx="2" ry="2">
<title>2026-07-13: 0 分钟</title>
</rect>
<rect x="394" y="53" width="11" height="11" fill="#EBEDF0" rx="2" ry="2">
<title>2026-07-14: 0 分钟</title>
</rect>
<rect x="394" y="66" width="11" height="11" fill="#EBEDF0" rx="2" ry="2">
<title>2026-07-15: 0 分钟</title>
</rect>
<rect x="394" y="79" width="11" height="11" fill="#EBEDF0" rx="2" ry="2">
<title>2026-07-16: 0 分钟</title>
</rect>
<rect x="394" y="92" width="11" height="11" fill="#EBEDF0" rx="2" ry="2">
<title>2026-07-17: 0 分钟</title>
</rect>
<rect x="394" y="105" width="11" height="11" fill="#EBEDF0" rx="2" ry="2">
<title>2026-07-18: 0 分钟</title>
</rect>
<rect x="394" y="118" width="11" height="11" fill="#EBEDF0" rx="2" ry="2">
<title>2026-07-19: 0 分钟</title>
</rect>
<rect x="407" y="40" width="11" height="11" fill="#EBEDF0" rx="2" ry="2">
<title>2026-07-20: 0 分钟</title>
</rect>
<rect x="407" y="53" width="11" height="11" fill="#EBEDF0" rx="2" ry="2">
<title>2026-07-21: 0 分钟</title>
</rect>
<rect x="407" y="66" width="11" height="11" fill="#EBEDF0" rx="2" ry="2">
<title>2026-07-22: 0 分钟</title>
</rect>
<rect x="407" y="79" width="11" height="11" fill="#EBEDF0" rx="2" ry="2">
<title>2026-07-23: 0 分钟</title>
</rect>
<rect x="407" y="92" width="11" height="11" fill="#EBEDF0" rx="2" ry="2">
<title>2026-07-24: 0 分钟</title>
</rect>
<rect x="407" y="105" width="11" height="11" fill="#EBEDF0" rx="2" ry="2">
<title>2026-07-25: 0 分钟</title>
</rect>
<rect x="407" y="118" width="11" height="11" fill="#EBEDF0" rx="2" ry="2">
<title>2026-07-26: 0 分钟</title>
</rect>
<rect x="420" y="40" width="11" height="11" fill="#EBEDF0" rx="2" ry="2">
<title>2026-07-27: 0 分钟</title>
</rect>
<rect x="420" y="53" width="11" height="11" fill="#EBEDF0" rx="2" ry="2">
<title>2026-07-28: 0 分钟</title>
</rect>
<rect x="420" y="66" width="11" height="11" fill="#EBEDF0" rx="2" ry="2">
<title>2026-07-29: 0 分钟</title>
</rect>
<rect x="420" y="79" width="11" height="11" fill="#EBEDF0" rx="2" ry="2">
<title>2026-07-30: 0 分钟</title>
</rect>
<rect x="420" y="92" width="11" height="11" fill="#EBEDF0" rx="2" ry="2">
<title>2026-07-31: 0 分钟</title>
</rect>
<rect x="420" y="105" width="11" height="11" fill="#EBEDF0" rx="2" ry="2">
<title>2026-08-01: 0 分钟</title>
</rect>
<rect x="420" y="118" width="11" height="11" fill="#EBEDF0" rx="2" ry="2">
<title>2026-08-02: 0 分钟</title>
</rect>
<rect x="433" y="40" width="11" height="11" fill="#EBEDF0" rx="2" ry="2">
<title>2026-08-03: 0 分钟</title>
</rect>
<rect x="433" y="53" width="11" height="11" fill="#EBEDF0" rx="2" ry="2">
<title>2026-08-04: 0 分钟</title>
</rect>
<rect x="433" y="66" width="11" height="11" fill="#EBEDF0" rx="2" ry="2">
<title>2026-08-05: 0 分钟</title>
</rect>
<rect x="433" y="79" width="11" height="11" fill="#EBEDF0" rx="2" ry="2">
<title>2026-08-06: 0 分钟</title>
</rect>
<rect x="433" y="92" width="11" height="11" fill="#EBEDF0" rx="2" ry="2">
<title>2026-08-07: 0 分钟</title>
</rect>
<rect x="433" y="105" width="11" height="11" fill="#EBEDF0" rx="2" ry="2">
<title>2026-08-08: 0 分钟</title>
</rect>
<rect x="433" y="118" width="11" height="11" fill="#EBEDF0" rx="2" ry="2">
<title>2026-08-09: 0 分钟</title>
</rect>
<rect x="446" y="40" width="11" height="11" fill="#EBEDF0" rx="2" ry="2">
<title>2026-08-10: 0 分钟</title>
</rect>
<rect x="446" y="53" width="11" height="11" fill="#EBEDF0" rx="2" ry="2">
<title>2026-08-11: 0 分钟</title>
</rect>
<rect x="446" y="66" width="11" height="11" fill="#EBEDF0" rx="2" ry="2">
<title>2026-08-12: 0 分钟</title>
</rect>
<rect x="446" y="79" width="11" height="11" fill="#EBEDF0" rx="2" ry="2">
<title>2026-08-13: 0 分钟</title>
</rect>
<rect x="446" y="92" width="11" height="11" fill="#EBEDF0" rx="2" ry="2">
<title>2026-08-14: 0 分钟</title>
</rect>
<rect x="446" y="105" width="11" height="11" fill="#EBEDF0" rx="2" ry="2">
<title>2026-08-15: 0 分钟</title>
</rect>
<rect x="446" y="118" width="11" height="11" fill="#EBEDF0" rx="2" ry="2">
<title>2026-08-16: 0 分钟</title>
</rect>
<rect x="459" y="40" width="11" height="11" fill="#EBEDF0" rx="2" ry="2">
<title>2026-08-17: 0 分钟</title>
</rect>
<rect x="459" y="53" width="11" height="11" fill="#EBEDF0" rx="2" ry="2">
<title>2026-08-18: 0 分钟</title>
</rect>
<rect x="459" y="66" width="11" height="11" fill="#EBEDF0" rx="2" ry="2">
<title>2026-08-19: 0 分钟</title>
</rect>
<rect x="459" y="79" width="11" height="11" fill="#EBEDF0" rx="2" ry="2">
<title>2026-08-20: 0 分钟</title>
</rect>
<rect x="459" y="92" width="11" height="11" fill="#EBEDF0" rx="2" ry="2">
<title>2026-08-21: 0 分钟</title>
</rect>
<rect x="459" y="105" width="11" height="11" fill="#EBEDF0" rx="2" ry="2">
<title>2026-08-22: 0 分钟</title>
</rect>
<rect x="459" y="118" width="11" height="11" fill="#EBEDF0" rx="2" ry="2">
<title>2026-08-23: 0 分钟</title>
</rect>
<rect x="472" y="40" width="11" height="11" fill="#EBEDF0" rx="2" ry="2">
<title>2026-08-24: 0 分钟</title>
</rect>
<rect x="472" y="53" width="11" height="11" fill="#EBEDF0" rx="2" ry="2">
<title>2026-08-25: 0 分钟</title>
</rect>
<rect x="472" y="66" width="11" height="11" fill="#EBEDF0" rx="2" ry="2">
<title>2026-08-26: 0 分钟</title>
</rect>
<rect x="472" y="79" width="11" height="11" fill="#EBEDF0" rx="2" ry="2">
<title>2026-08-27: 0 分钟</title>
</rect>
<rect x="472" y="92" width="11" height="11" fill="#EBEDF0" rx="2" ry="2">
<title>2026-08-28: 0 分钟</title>
</rect>
<rect x="472" y="105" width="11" height="11" fill="#EBEDF0" rx="2" ry="2">
<title>2026-08-29: 0 分钟</title>
</rect>
<rect x="472" y="118" width="11" height="11" fill="#EBEDF0" rx="2" ry="2">
<title>2026-08-30: 0 分钟</title>
</rect>
<rect x="485" y="40" width="11" height="11" fill="#EBEDF0" rx="2" ry="2">
<title>2026-08-31: 0 分钟</title>
</rect>
<rect x="485" y="53" width="11" height="11" fill="#EBEDF0" rx="2" ry="2">
<title>2026-09-01: 0 分钟</title>
</rect>
<rect x="485" y="66" width="11" height="11" fill="#EBEDF0" rx="2" ry="2">
<title>2026-09-02: 0 分钟</title>
</rect>
<rect x="485" y="79" width="11" height="11" fill="#EBEDF0" rx="2" ry="2">
<title>2026-09-03: 0 分钟</title>
</rect>
<rect x="485" y="92" width="11" height="11" fill="#EBEDF0" rx="2" ry="2">
<title>2026-09-04: 0 分钟</title>
</rect>
<rect x="485" y="105" width="11" height="11" fill="#EBEDF0" rx="2" ry="2">
<title>2026-09-05: 0 分钟</title>
</rect>
<rect x="485" y="118" width="11" height="11" fill="#EBEDF0" rx="2" ry="2">
<title>2026-09-06: 0 分钟</title>
</rect>
<rect x="498" y="40" width="11" height="11" fill="#EBEDF0" rx="2" ry="2">
<title>2026-09-07: 0 分钟</title>
</rect>
<rect x="498" y="53" width="11" height="11" fill="#EBEDF0" rx="2" ry="2">
<title>2026-09-08: 0 分钟</title>
</rect>
<rect x="498" y="66" width="11" height="11" fill="#EBEDF0" rx="2" ry="2">
<title>2026-09-09: 0 分钟</title>
</rect>
<rect x="498" y="79" width="11" height="11" fill="#EBEDF0" rx="2" ry="2">
<title>2026-09-10: 0 分钟</title>
</rect>
<rect x="498" y="92" width="11" height="11" fill="#EBEDF0" rx="2" ry="2">
<title>2026-09-11: 0 分钟</title>
</rect>
<rect x="498" y="105" width="11" height="11" fill="#EBEDF0" rx="2" ry="2">
<title>2026-09-12: 0 分钟</title>
</rect>
<rect x="498" y="118" width="11" height="11" fill="#EBEDF0" rx="2" ry="2">
<title>2026-09-13: 0 分钟</title>
</rect>
<rect x="511" y="40" width="11" height="11" fill="#EBEDF0" rx="2" ry="2">
<title>2026-09-14: 0 分钟</title>
</rect>
<rect x="511" y="53" width="11" height="11" fill="#EBEDF0" rx="2" ry="2">
<title>2026-09-15: 0 分钟</title>
</rect>
<rect x="511" y="66" width="11" height="11" fill="#EBEDF0" rx="2" ry="2">
<title>2026-09-16: 0 分钟</title>
</rect>
<rect x="511" y="79" width="11" height="11" fill="#EBEDF0" rx="2" ry="2">
<title>2026-09-17: 0 分钟</title>
</rect>
<rect x="511" y="92" width="11" height="11" fill="#EBEDF0" rx="2" ry="2">
<title>2026-09-18: 0 分钟</title>
</rect>
<rect x="511" y="105" width="11" height="11" fill="#EBEDF0" rx="2" ry="2">
<title>2026-09-19: 0 分钟</title>
</rect>
<rect x="511" y="118" width="11" height="11" fill="#EBEDF0" rx="2" ry="2">
<title>2026-09-20: 0 分钟</title>
</rect>
<rect x="524" y="40" width="11" height="11" fill="#EBEDF0" rx="2" ry="2">
<title>2026-09-21: 0 分钟</title>
</rect>
<rect x="524" y="53" width="11" height="11" fill="#EBEDF0" rx="2" ry="2">
<title>2026-09-22: 0 分钟</title>
</rect>
<rect x="524" y="66" width="11" height="11" fill="#EBEDF0" rx="2" ry="2">
<title>2026-09-23: 0 分钟</title>
</rect>
<rect x="524" y="79" width="11" height="11" fill="#EBEDF0" rx="2" ry="2">
<title>2026-09-24: 0 分钟</title>
</rect>
<rect x="524" y="92" width="11" height="11" fill="#EBEDF0" rx="2" ry="2">
<title>2026-09-25: 0 分钟</title>
</rect>
<rect x="524" y="105" width="11" height="11" fill="#EBEDF0" rx="2" ry="2">
<title>2026-09-26: 0 分钟</title>
</rect>
<rect x="524" y="118" width="11" height="11" fill="#EBEDF0" rx="2" ry="2">
<title>2026-09-27: 0 分钟</title>
</rect>
<rect x="537" y="40" width="11" height="11" fill="#EBEDF0" rx="2" ry="2">
<title>2026-09-28: 0 分钟</title>
</rect>
<rect x="537" y="53" width="11" height="11" fill="#EBEDF0" rx="2" ry="2">
<title>2026-09-29: 0 分钟</title>
</rect>
<rect x="537" y="66" width="11" height="11" fill="#EBEDF0" rx="2" ry="2">
<title>2026-09-30: 0 分钟</title>
</rect>
<rect x="537" y="79" width="11" height="11" fill="#EBEDF0" rx="2" ry="2">
<title>2026-10-01: 0 分钟</title>
</rect>
<rect x="537" y="92" width="11" height="11" fill="#EBEDF0" rx="2" ry="2">
<title>2026-10-02: 0 分钟</title>
</rect>
<rect x="537" y="105" width="11" height="11" fill="#EBEDF0" rx="2" ry="2">
<title>2026-10-03: 0 分钟</title>
</rect>
<rect x="537" y="118" width="11" height="11" fill="#EBEDF0" rx="2" ry="2">
<title>2026-10-04: 0 分钟</title>
</rect>
<rect x="550" y="40" width="11" height="11" fill="#EBEDF0" rx="2" ry="2">
<title>2026-10-05: 0 分钟</title>
</rect>
<rect x="550" y="53" width="11" height="11" fill="#EBEDF0" rx="2" ry="2">
<title>2026-10-06: 0 分钟</title>
</rect>
<rect x="550" y="66" width="11" height="11" fill="#EBEDF0" rx="2" ry="2">
<title>2026-10-07: 0 分钟</title>
</rect>
<rect x="550" y="79" width="11" height="11" fill="#EBEDF0" rx="2" ry="2">
<title>2026-10-08: 0 分钟</title>
</rect>
<rect x="550" y="92" width="11" height="11" fill="#EBEDF0" rx="2" ry="2">
<title>2026-10-09: 0 分钟</title>
</rect>
<rect x="550" y="105" width="11" height="11" fill="#EBEDF0" rx="2" ry="2">
<title>2026-10-10: 0 分钟</title>
</rect>
<rect x="550" y="118" width="11" height="11" fill="#EBEDF0" rx="2" ry="2">
<title>2026-10-11: 0 分钟</title>
</rect>
<rect x="563" y="40" width="11" height="11" fill="#EBEDF0" rx="2" ry="2">
<title>2026-10-12: 0 分钟</title>
</rect>
<rect x="563" y="53" width="11" height="11" fill="#EBEDF0" rx="2" ry="2">
<title>2026-10-13: 0 分钟</title>
</rect>
<rect x="563" y="66" width="11" height="11" fill="#EBEDF0" rx="2" ry="2">
<title>2026-10-14: 0 分钟</title>
</rect>
<rect x="563" y="79" width="11" height="11" fill="#EBEDF0" rx="2" ry="2">
<title>2026-10-15: 0 分钟</title>
</rect>
<rect x="563" y="92" width="11" height="11" fill="#EBEDF0" rx="2" ry="2">
<title>2026-10-16: 0 分钟</title>
</rect>
<rect x="563" y="105" width="11" height="11" fill="#EBEDF0" rx="2" ry="2">
<title>2026-10-17: 0 分钟</title>
</rect>
<rect x="563" y="118" width="11" height="11" fill="#EBEDF0" rx="2" ry="2">
<title>2026-10-18: 0 分钟</title>
</rect>
<rect x="576" y="40" width="11" height="11" fill="#EBEDF0" rx="2" ry="2">
<title>2026-10-19: 0 分钟</title>
</rect>
<rect x="576" y="53" width="11" height="11" fill="#EBEDF0" rx="2" ry="2">
<title>2026-10-20: 0 分钟</title>
</rect>
<rect x="576" y="66" width="11" height="11" fill="#EBEDF0" rx="2" ry="2">
<title>2026-10-21: 0 分钟</title>
</rect>
<rect x="576" y="79" width="11" height="11" fill="#EBEDF0" rx="2" ry="2">
<title>2026-10-22: 0 分钟</title>
</rect>
<rect x="576" y="92" width="11" height="11" fill="#EBEDF0" rx="2" ry="2">
<title>2026-10-23: 0 分钟</title>
</rect>
<rect x="576" y="105" width="11" height="11" fill="#EBEDF0" rx="2" ry="2">
<title>2026-10-24: 0 分钟</title>
</rect>
<rect x="576" y="118" width="11" height="11" fill="#EBEDF0" rx="2" ry="2">
<title>2026-10-25: 0 分钟</title>
</rect>
<rect x="589" y="40" width="11" height="11" fill="#EBEDF0" rx="2" ry="2">
<title>2026-10-26: 0 分钟</title>
</rect>
<rect x="589" y="53" width="11" height="11" fill="#EBEDF0" rx="2" ry="2">
<title>2026-10-27: 0 分钟</title>
</rect>
<rect x="589" y="66" width="11" height="11" fill="#EBEDF0" rx="2" ry="2">
<title>2026-10-28: 0 分钟</title>
</rect>
<rect x="589" y="79" width="11" height="11" fill="#EBEDF0" rx="2" ry="2">
<title>2026-10-29: 0 分钟</title>
</rect>
<rect x="589" y="92" width="11" height="11" fill="#EBEDF0" rx="2" ry="2">
<title>2026-10-30: 0 分钟</title>
</rect>
<rect x="589" y="105" width="11" height="11" fill="#EBEDF0" rx="2" ry="2">
<title>2026-10-31: 0 分钟</title>
</rect>
<rect x="589" y="118" width="11" height="11" fill="#EBEDF0" rx="2" ry="2">
<title>2026-11-01: 0 分钟</title>
</rect>
<rect x="602" y="40" width="11" height="11" fill="#EBEDF0" rx="2" ry="2">
<title>2026-11-02: 0 分钟</title>
</rect>
<rect x="602" y="53" width="11" height="11" fill="#EBEDF0" rx="2" ry="2">
<title>2026-11-03: 0 分钟</title>
</rect>
<rect x="602" y="66" width="11" height="11" fill="#EBEDF0" rx="2" ry="2">
<title>2026-11-04: 0 分钟</title>
</rect>
<rect x="602" y="79" width="11" height="11" fill="#EBEDF0" rx="2" ry="2">
<title>2026-11-05: 0 分钟</title>
</rect>
<rect x="602" y="92" width="11" height="11" fill="#EBEDF0" rx="2" ry="2">
<title>2026-11-06: 0 分钟</title>
</rect>
<rect x="602" y="105" width="11" height="11" fill="#EBEDF0" rx="2" ry="2">
<title>2026-11-07: 0 分钟</title>
</rect>
<rect x="602" y="118" width="11" height="11" fill="#EBEDF0" rx="2" ry="2">
<title>2026-11-08: 0 分钟</title>
</rect>
<rect x="615" y="40" width="11" height="11" fill="#EBEDF0" rx="2" ry="2">
<title>2026-11-09: 0 分钟</title>
</rect>
<rect x="615" y="53" width="11" height="11" fill="#EBEDF0" rx="2" ry="2">
<title>2026-11-10: 0 分钟</title>
</rect>
<rect x="615" y="66" width="11" height="11" fill="#EBEDF0" rx="2" ry="2">
<title>2026-11-11: 0 分钟</title>
</rect>
<rect x="615" y="79" width="11" height="11" fill="#EBEDF0" rx="2" ry="2">
<title>2026-11-12: 0 分钟</title>
</rect>
<rect x="615" y="92" width="11" height="11" fill="#EBEDF0" rx="2" ry="2">
<title>2026-11-13: 0 分钟</title>
</rect>
<rect x="615" y="105" width="11" height="11" fill="#EBEDF0" rx="2" ry="2">
<title>2026-11-14: 0 分钟</title>
</rect>
<rect x="615" y="118" width="11" height="11" fill="#EBEDF0" rx="2" ry="2">
<title>2026-11-15: 0 分钟</title>
</rect>
<rect x="628" y="40" width="11" height="11" fill="#EBEDF0" rx="2" ry="2">
<title>2026-11-16: 0 分钟</title>
</rect>
<rect x="628" y="53" width="11" height="11" fill="#EBEDF0" rx="2" ry="2">
<title>2026-11-17: 0 分钟</title>
</rect>
<rect x="628" y="66" width="11" height="11" fill="#EBEDF0" rx="2" ry="2">
<title>2026-11-18: 0 分钟</title>
</rect>
<rect x="628" y="79" width="11" height="11" fill="#EBEDF0" rx="2" ry="2">
<title>2026-11-19: 0 分钟</title>
</rect>
<rect x="628" y="92" width="11" height="11" fill="#EBEDF0" rx="2" ry="2">
<title>2026-11-20: 0 分钟</title>
</rect>
<rect x="628" y="105" width="11" height="11" fill="#EBEDF0" rx="2" ry="2">
<title>2026-11-21: 0 分钟</title>
</rect>
<rect x="628" y="118" width="11" height="11" fill="#EBEDF0" rx="2" ry="2">
<title>2026-11-22: 0 分钟</title>
</rect>
<rect x="641" y="40" width="11" height="11" fill="#EBEDF0" rx="2" ry="2">
<title>2026-11-23: 0 分钟</title>
</rect>
<rect x="641" y="53" width="11" height="11" fill="#EBEDF0" rx="2" ry="2">
<title>2026-11-24: 0 分钟</title>
</rect>
<rect x="641" y="66" width="11" height="11" fill="#EBEDF0" rx="2" ry="2">
<title>2026-11-25: 0 分钟</title>
</rect>
<rect x="641" y="79" width="11" height="11" fill="#EBEDF0" rx="2" ry="2">
<title>2026-11-26: 0 分钟</title>
</rect>
<rect x="641" y="92" width="11" height="11" fill="#EBEDF0" rx="2" ry="2">
<title>2026-11-27: 0 分钟</title>
</rect>
<rect x="641" y="105" width="11" height="11" fill="#EBEDF0" rx="2" ry="2">
<title>2026-11-28: 0 分钟</title>
</rect>
<rect x="641" y="118" width="11" height="11" fill="#EBEDF0" rx="2" ry="2">
<title>2026-11-29: 0 分钟</title>
</rect>
<rect x="654" y="40" width="11" height="11" fill="#EBEDF0" rx="2" ry="2">
<title>2026-11-30: 0 分钟</title>
</rect>
<rect x="654" y="53" width="11" height="11" fill="#EBEDF0" rx="2" ry="2">
<title>2026-12-01: 0 分钟</title>
</rect>
<rect x="654" y="66" width="11" height="11" fill="#EBEDF0" rx="2" ry="2">
<title>2026-12-02: 0 分钟</title>
</rect>
<rect x="654" y="79" width="11" height="11" fill="#EBEDF0" rx="2" ry="2">
<title>2026-12-03: 0 分钟</title>
</rect>
<rect x="654" y="92" width="11" height="11" fill="#EBEDF0" rx="2" ry="2">
<title>2026-12-04: 0 分钟</title>
</rect>
<rect x="654" y="105" width="11" height="11" fill="#EBEDF0" rx="2" ry="2">
<title>2026-12-05: 0 分钟</title>
</rect>
<rect x="654" y="118" width="11" height="11" fill="#EBEDF0" rx="2" ry="2">
<title>2026-12-06: 0 分钟</title>
</rect>
<rect x="667" y="40" width="11" height="11" fill="#EBEDF0" rx="2" ry="2">
<title>2026-12-07: 0 分钟</title>
</rect>
<rect x="667" y="53" width="11" height="11" fill="#EBEDF0" rx="2" ry="2">
<title>2026-12-08: 0 分钟</title>
</rect>
<rect x="667" y="66" width="11" height="11" fill="#EBEDF0" rx="2" ry="2">
<title>2026-12-09: 0 分钟</title>
</rect>
<rect x="667" y="79" width="11" height="11" fill="#EBEDF0" rx="2" ry="2">
<title>2026-12-10: 0 分钟</title>
</rect>
<rect x="667" y="92" width="11" height="11" fill="#EBEDF0" rx="2" ry="2">
<title>2026-12-11: 0 分钟</title>
</rect>
<rect x="667" y="105" width="11" height="11" fill="#EBEDF0" rx="2" ry="2">
<title>2026-12-12: 0 分钟</title>
</rect>
<rect x="667" y="118" width="11" height="11" fill="#EBEDF0" rx="2" ry="2">
<title>2026-12-13: 0 分钟</title>
</rect>
<rect x="680" y="40" width="11" height="11" fill="#EBEDF0" rx="2" ry="2">
<title>2026-12-14: 0 分钟</title>
</rect>
<rect x="680" y="53" width="11" height="11" fill="#EBEDF0" rx="2" ry="2">
<title>2026-12-15: 0 分钟</title>
</rect>
<rect x="680" y="66" width="11" height="11" fill="#EBEDF0" rx="2" ry="2">
<title>2026-12-16: 0 分钟</title>
</rect>
<rect x="680" y="79" width="11" height="11" fill="#EBEDF0" rx="2" ry="2">
<title>2026-12-17: 0 分钟</title>
</rect>
<rect x="680" y="92" width="11" height="11" fill="#EBEDF0" rx="2" ry="2">
<title>2026-12-18: 0 分钟</title>
</rect>
<rect x="680" y="105" width="11" height="11" fill="#EBEDF0" rx="2" ry="2">
<title>2026-12-19: 0 分钟</title>
</rect>
<rect x="680" y="118" width="11" height="11" fill="#EBEDF0" rx="2" ry="2">
<title>2026-12-20: 0 分钟</title>
</rect>
<rect x="693" y="40" width="11" height="11" fill="#EBEDF0" rx="2" ry="2">
<title>2026-12-21: 0 分钟</title>
</rect>
<rect x="693" y="53" width="11" height="11" fill="#EBEDF0" rx="2" ry="2">
<title>2026-12-22: 0 分钟</title>
</rect>
<rect x="693" y="66" width="11" height="11" fill="#EBEDF0" rx="2" ry="2">
<title>2026-12-23: 0 分钟</title>
</rect>
<rect x="693" y="79" width="11" height="11" fill="#EBEDF0" rx="2" ry="2">
<title>2026-12-24: 0 分钟</title>
</rect>
<rect x="693" y="92" width="11" height="11" fill="#EBEDF0" rx="2" ry="2">
<title>2026-12-25: 0 分钟</title>
</rect>
<rect x="693" y="105" width="11" height="11" fill="#EBEDF0" rx="2" ry="2">
<title>2026-12-26: 0 分钟</title>
</rect>
<rect x="693" y="118" width="11" height="11" fill="#EBEDF0" rx="2" ry="2">
<title>2026-12-27: 0 分钟</title>
</rect>
<rect x="706" y="40" width="11" height="11" fill="#EBEDF0" rx="2" ry="2">
<title>2026-12-28: 0 分钟</title>
</rect>
<rect x="706" y="53" width="11" height="11" fill="#EBEDF0" rx="2" ry="2">
<title>2026-12-29: 0 分钟</title>
</rect>
<rect x="706" y="66" width="11" height="11" fill="#EBEDF0" rx="2" ry="2">
<title>2026-12-30: 0 分钟</title>
</rect>
<rect x="706" y="79" width="11" height="11" fill="#EBEDF0" rx="2" ry="2">
<title>2026-12-31: 0 分钟</title>
</rect>
<text x="30" y="141" font-family="Arial, sans-serif" font-size="10" fill="#000000">Less</text>
<rect x="65" y="132" width="11" height="11" fill="#EBEDF0" rx="2" ry="2"/>
<text x="80" y="141" font-family="Arial, sans-serif" font-size="9" fill="#000000">0 min</text>
<rect x="110" y="132" width="11" height="11" fill="#ACE7AE" rx="2" ry="2"/>
<text x="125" y="141" font-family="Arial, sans-serif" font-size="9" fill="#000000"><30 min</text>
<rect x="155" y="132" width="11" height="11" fill="#69C16E" rx="2" ry="2"/>
<text x="170" y="141" font-family="Arial, sans-serif" font-size="9" fill="#000000">30-60 min</text>
<rect x="200" y="132" width="11" height="11" fill="#549F57" rx="2" ry="2"/>
<text x="215" y="141" font-family="Arial, sans-serif" font-size="9" fill="#000000">>60 min</text>
</svg>